<svg width="66" height="17" viewBox="0 0 66 17" fill="none" xmlns="http://www.w3.org/2000/svg">
<path d="M0.8 16V15.58L2.64 15.28V0.719999L0.8 0.439999V-2.38419e-07H12.84V4.58H12.3L10.76 0.499999H4.84V7.7H7.44L8.62 4.8H9.14V11.12H8.62L7.42 8.18H4.84V15.52H11.12L12.76 11.12H13.28V16H0.8ZM14.8141 16V15.6L16.3141 15.4V0.599999L14.8141 0.399999V-2.38419e-07H18.3141V15.4L19.7141 15.6V16H14.8141ZM22.8167 3.32C22.4434 3.32 22.1234 3.19333 21.8567 2.94C21.5901 2.67333 21.4567 2.35333 21.4567 1.98C21.4567 1.60667 21.5834 1.29333 21.8367 1.04C22.1034 0.786666 22.4301 0.66 22.8167 0.66C23.1767 0.66 23.4834 0.786666 23.7367 1.04C23.9901 1.29333 24.1167 1.60667 24.1167 1.98C24.1167 2.35333 23.9901 2.67333 23.7367 2.94C23.4834 3.19333 23.1767 3.32 22.8167 3.32ZM20.6967 16V15.6L22.0967 15.4V6.26L20.6967 6.06V5.66H24.0967V15.4L25.4967 15.6V16H20.6967ZM30.718 16.2C29.6246 16.2 28.7113 15.9667 27.978 15.5C27.2446 15.0333 26.878 14.4267 26.878 13.68C26.878 13.2933 26.978 12.9933 27.178 12.78C27.3913 12.5533 27.6713 12.44 28.018 12.44C28.2846 12.44 28.5113 12.5067 28.698 12.64C28.8846 12.7733 29.018 12.96 29.098 13.2C28.8046 13.52 28.658 13.86 28.658 14.22C28.658 14.6333 28.8446 14.9933 29.218 15.3C29.5913 15.6067 30.0913 15.76 30.718 15.76C31.558 15.76 32.2446 15.5733 32.778 15.2C33.3113 14.8133 33.578 14.3 33.578 13.66C33.578 13.2867 33.4646 13.0067 33.238 12.82C33.0113 12.6333 32.5713 12.42 31.918 12.18L28.898 11.08C27.7113 10.6533 27.118 9.86 27.118 8.7C27.118 7.75333 27.4446 6.98 28.098 6.38C28.7513 5.76667 29.6513 5.46 30.798 5.46C31.7446 5.46 32.5513 5.68 33.218 6.12C33.898 6.54667 34.238 7.16 34.238 7.96C34.238 8.28 34.1513 8.54 33.978 8.74C33.8046 8.92667 33.578 9.02 33.298 9.02C33.018 9.02 32.7846 8.94667 32.598 8.8C32.4246 8.64 32.338 8.42667 32.338 8.16C32.5113 8.02667 32.6313 7.88667 32.698 7.74C32.7646 7.58 32.798 7.39333 32.798 7.18C32.798 6.80667 32.6313 6.5 32.298 6.26C31.978 6.02 31.478 5.9 30.798 5.9C30.2113 5.9 29.7046 5.99333 29.278 6.18C28.8646 6.35333 28.5513 6.58667 28.338 6.88C28.1246 7.17333 28.018 7.47333 28.018 7.78C28.018 8.1 28.1313 8.35333 28.358 8.54C28.598 8.72667 29.0313 8.93333 29.658 9.16L32.458 10.16C33.1113 10.4 33.6046 10.7333 33.938 11.16C34.2713 11.5867 34.438 12.14 34.438 12.82C34.438 13.7933 34.1313 14.6 33.518 15.24C32.9046 15.88 31.9713 16.2 30.718 16.2ZM38.1097 3.32C37.7364 3.32 37.4164 3.19333 37.1497 2.94C36.883 2.67333 36.7497 2.35333 36.7497 1.98C36.7497 1.60667 36.8764 1.29333 37.1297 1.04C37.3964 0.786666 37.723 0.66 38.1097 0.66C38.4697 0.66 38.7764 0.786666 39.0297 1.04C39.283 1.29333 39.4097 1.60667 39.4097 1.98C39.4097 2.35333 39.283 2.67333 39.0297 2.94C38.7764 3.19333 38.4697 3.32 38.1097 3.32ZM35.9897 16V15.6L37.3897 15.4V6.26L35.9897 6.06V5.66H39.3897V15.4L40.7897 15.6V16H35.9897ZM47.2509 16.2C46.2909 16.2 45.4176 15.98 44.6309 15.54C43.8443 15.0867 43.2176 14.4533 42.7509 13.64C42.2976 12.8133 42.0709 11.8733 42.0709 10.82C42.0709 9.76667 42.2976 8.83333 42.7509 8.02C43.2176 7.20667 43.8443 6.58 44.6309 6.14C45.4176 5.68667 46.2909 5.46 47.2509 5.46C48.2109 5.46 49.0843 5.68667 49.8709 6.14C50.6576 6.58 51.2776 7.20667 51.7309 8.02C52.1976 8.83333 52.4309 9.76667 52.4309 10.82C52.4309 11.8733 52.1976 12.8133 51.7309 13.64C51.2776 14.4533 50.6576 15.0867 49.8709 15.54C49.0843 15.98 48.2109 16.2 47.2509 16.2ZM47.2509 15.76C48.2376 15.76 48.9776 15.4 49.4709 14.68C49.9776 13.96 50.2309 13.0067 50.2309 11.82V9.82C50.2309 8.63333 49.9776 7.68667 49.4709 6.98C48.9776 6.26 48.2376 5.9 47.2509 5.9C46.2643 5.9 45.5176 6.26 45.0109 6.98C44.5176 7.68667 44.2709 8.63333 44.2709 9.82V11.82C44.2709 13.0067 44.5176 13.96 45.0109 14.68C45.5176 15.4 46.2643 15.76 47.2509 15.76ZM53.8213 15.6L55.2213 15.4V6.24L53.8213 6.04V5.64H57.2213V7.8C57.7146 7.08 58.2946 6.51333 58.9613 6.1C59.6279 5.67333 60.3479 5.46 61.1213 5.46C62.0813 5.46 62.8346 5.7 63.3812 6.18C63.9413 6.66 64.2213 7.37333 64.2213 8.32V15.4L65.6213 15.6V16H61.0213V15.6L62.2213 15.4V8.36C62.2213 7.66667 62.0813 7.13333 61.8013 6.76C61.5213 6.37333 61.0879 6.18 60.5013 6.18C59.8879 6.18 59.2946 6.40667 58.7213 6.86C58.1613 7.3 57.6613 7.84667 57.2213 8.5V15.4L58.4212 15.6V16H53.8213V15.6Z" fill="black"/>
</svg>
